<svg xmlns="http://www.w3.org/2000/svg" width="25.951" height="24.38" viewBox="0 0 25.951 24.38">
  <g id="_20-Checked" data-name="20-Checked" transform="translate(-31.576 -45.398)">
    <path id="Path_1" data-name="Path 1" d="M86.818,66.712a.568.568,0,0,1-.49-.28c-1.894-3.226-6.943-10.1-6.993-10.165a.568.568,0,0,1,.058-.741l1.553-1.534a.568.568,0,0,1,.724-.062l5.03,3.512a62.734,62.734,0,0,1,8.547-9.055,31.786,31.786,0,0,1,3.85-2.908.568.568,0,0,1,.292-.081H101.9a.568.568,0,0,1,.378.992c-7.133,6.353-14.889,19.9-14.966,20.035a.568.568,0,0,1-.49.287Z" transform="translate(-44.942)" fill="#4835c1"/>
    <path id="Path_2" data-name="Path 2" d="M51.457,135.049H32.144a.568.568,0,0,1-.568-.568V115.168a.568.568,0,0,1,.568-.568H44.669a.568.568,0,1,1,0,1.136H32.712v18.177H50.889V121.957a.568.568,0,0,1,1.136,0v12.524A.568.568,0,0,1,51.457,135.049Z" transform="translate(0 -65.271)" fill="#4835c1"/>
  </g>
</svg>
